<svg aria-hidden="true" style="position: absolute; width: 0; height: 0; overflow: hidden;" version="1.1" xmlns="http://www.w3.org/2000/svg" xmlns:xlink="http://www.w3.org/1999/xlink">
<defs>
<symbol id="icon-edit" viewBox="0 0 32 32">
<path stroke-linejoin="round" stroke-linecap="round" stroke-miterlimit="4" stroke-width="2.9714" d="M3.718 25.217c0.105-0.945 0.158-1.418 0.3-1.859 0.127-0.392 0.306-0.765 0.533-1.109 0.256-0.388 0.592-0.724 1.264-1.396l16.852-16.852c1.473-1.473 3.861-1.473 5.333 0v0c1.473 1.473 1.473 3.861 0 5.333l-16.853 16.852c-0.672 0.672-1.009 1.009-1.396 1.264-0.344 0.227-0.717 0.406-1.109 0.533-0.442 0.143-0.914 0.195-1.859 0.301l-3.45 0.383 0.383-3.45z"></path>
</symbol>
<symbol id="icon-close" viewBox="0 0 32 32">
<path stroke-linejoin="round" stroke-linecap="round" stroke-miterlimit="4" stroke-width="2.6667" d="M24 8l-16 16"></path>
<path stroke-linejoin="round" stroke-linecap="round" stroke-miterlimit="4" stroke-width="2.6667" d="M8 8l16 16"></path>
</symbol>
<symbol id="trash" viewBox="0 0 32 32">
<path stroke-linejoin="round" stroke-linecap="round" stroke-miterlimit="4" stroke-width="2" d="M21.333 8v-1.067c0-1.493 0-2.24-0.291-2.811-0.256-0.502-0.664-0.91-1.165-1.165-0.57-0.291-1.317-0.291-2.811-0.291h-2.133c-1.493 0-2.24 0-2.811 0.291-0.502 0.256-0.91 0.664-1.165 1.165-0.291 0.57-0.291 1.317-0.291 2.811v1.067M13.333 15.333v6.667M18.667 15.333v6.667M4 8h24M25.333 8v14.933c0 2.24 0 3.36-0.436 4.216-0.383 0.753-0.995 1.365-1.748 1.748-0.856 0.436-1.976 0.436-4.216 0.436h-5.867c-2.24 0-3.36 0-4.216-0.436-0.753-0.383-1.365-0.995-1.748-1.748-0.436-0.856-0.436-1.976-0.436-4.216v-14.933"></path>
</symbol>
<symbol id="logo" viewBox="0 0 28 28">
<path d="M19.3639 0H8.63616L0 8.63614V19.3638L8.63616 28H19.3639L28 19.3638V8.63614L19.3639 0ZM10.1205 19.4988L4.58796 13.9663L10.1205 8.43373C12.212 6.34217 15.653 6.34217 17.7446 8.43373L23.2771 13.9663L17.7446 19.4988C15.653 21.5904 12.2795 21.5904 10.1205 19.4988Z" />
</symbol>
<symbol id="search" viewBox="0 0 20 20">
    <path
        d="M9.16667 15.8333C12.8486 15.8333 15.8333 12.8486 15.8333 9.16667C15.8333 5.48477 12.8486 2.5 9.16667 2.5C5.48477 2.5 2.5 5.48477 2.5 9.16667C2.5 12.8486 5.48477 15.8333 9.16667 15.8333Z"
        stroke-width="1.8" stroke-linecap="round" stroke-linejoin="round" />
    <path d="M17.5 17.5L13.875 13.875" stroke-width="1.8" stroke-linecap="round" stroke-linejoin="round" />
</symbol>
<symbol id="cocktail" viewBox="0 -1 26 26">
  <path d="M23.812.678c-.054-.034-.107-.06-.16-.087a4.492 4.492 0 0 0-2.105-.516h-.008a4.602 4.602 0 0 0-3.965 2.278l-.012.022a4.429 4.429 0 0 0-.582 1.847l-.001.017h-9.6L6.305 1.65A2.664 2.664 0 0 0 3.229.071l.018-.004L.001.805l.201.886L3.448.953a1.76 1.76 0 0 1 2.014 1.035L5.466 2l.932 2.24H.302l10.193 10.193v7.463c-2.367.168-4 .952-4 1.925v.181h9.824v-.181c0-.972-1.636-1.76-4-1.925v-7.463l6.283-6.283c.197.167.417.322.649.458l.022.012A4.575 4.575 0 0 0 23.841.692L23.819.68zm.999 3.507-2.494.007 1.241-2.16a3.305 3.305 0 0 1 1.251 2.135zm-2.038-2.609-1.241 2.166-1.254-2.153a3.285 3.285 0 0 1 1.264-.248c.443 0 .866.086 1.253.243zm-4.111 1.429c.218-.379.496-.698.825-.955l.007-.005 1.254 2.153-2.488.007c.056-.449.198-.855.41-1.216l-.008.015zM3.359 5.506H6.92l.49 1.187H4.547zm14.894 1.188h-.813V6.7H8.387l-.49-1.187h11.534zm2.045 1.026 1.241-2.166 1.254 2.153c-.373.158-.807.25-1.262.25-.444 0-.868-.087-1.255-.246l.022.008zm4.111-1.422a3.297 3.297 0 0 1-.824.955l-.007.005-1.254-2.153 2.488-.006a3.35 3.35 0 0 1-.411 1.214l.009-.016z"/>
</symbol>
</defs>
</svg>
