<svg aria-hidden="true" style="position: absolute; width: 0; height: 0; overflow: hidden;" version="1.1" xmlns="http://www.w3.org/2000/svg" xmlns:xlink="http://www.w3.org/1999/xlink">
<defs>
<symbol id="icon-edit" viewBox="0 0 32 32">
<path stroke-linejoin="round" stroke-linecap="round" stroke-miterlimit="4" stroke-width="2.9714" d="M3.718 25.217c0.105-0.945 0.158-1.418 0.3-1.859 0.127-0.392 0.306-0.765 0.533-1.109 0.256-0.388 0.592-0.724 1.264-1.396l16.852-16.852c1.473-1.473 3.861-1.473 5.333 0v0c1.473 1.473 1.473 3.861 0 5.333l-16.853 16.852c-0.672 0.672-1.009 1.009-1.396 1.264-0.344 0.227-0.717 0.406-1.109 0.533-0.442 0.143-0.914 0.195-1.859 0.301l-3.45 0.383 0.383-3.45z"></path>
</symbol>
<symbol id="close" viewBox="0 0 32 32" stroke-linejoin="round" stroke-linecap="round"  stroke-width="2.7">
<path d="M24 8l-16 16"></path>
<path d="M8 8l16 16"></path>
</symbol>
<symbol id="trash" viewBox="0 0 32 32">
<path stroke-linejoin="round" stroke-linecap="round" stroke-miterlimit="4" stroke-width="2" d="M21.333 8v-1.067c0-1.493 0-2.24-0.291-2.811-0.256-0.502-0.664-0.91-1.165-1.165-0.57-0.291-1.317-0.291-2.811-0.291h-2.133c-1.493 0-2.24 0-2.811 0.291-0.502 0.256-0.91 0.664-1.165 1.165-0.291 0.57-0.291 1.317-0.291 2.811v1.067M13.333 15.333v6.667M18.667 15.333v6.667M4 8h24M25.333 8v14.933c0 2.24 0 3.36-0.436 4.216-0.383 0.753-0.995 1.365-1.748 1.748-0.856 0.436-1.976 0.436-4.216 0.436h-5.867c-2.24 0-3.36 0-4.216-0.436-0.753-0.383-1.365-0.995-1.748-1.748-0.436-0.856-0.436-1.976-0.436-4.216v-14.933"></path>
</symbol>
<symbol id="logo" viewBox="0 0 28 28">
<path d="M19.3639 0H8.63616L0 8.63614V19.3638L8.63616 28H19.3639L28 19.3638V8.63614L19.3639 0ZM10.1205 19.4988L4.58796 13.9663L10.1205 8.43373C12.212 6.34217 15.653 6.34217 17.7446 8.43373L23.2771 13.9663L17.7446 19.4988C15.653 21.5904 12.2795 21.5904 10.1205 19.4988Z" />
</symbol>
<symbol id="search" viewBox="0 0 20 20" stroke-width="1.8" stroke-linecap="round" stroke-linejoin="round">
    <path
        d="M9.16667 15.8333C12.8486 15.8333 15.8333 12.8486 15.8333 9.16667C15.8333 5.48477 12.8486 2.5 9.16667 2.5C5.48477 2.5 2.5 5.48477 2.5 9.16667C2.5 12.8486 5.48477 15.8333 9.16667 15.8333Z"
         />
    <path d="M17.5 17.5L13.875 13.875"/>
</symbol>
<symbol id="cocktail" viewBox="0 -1 26 26">
  <path d="M23.812.678c-.054-.034-.107-.06-.16-.087a4.492 4.492 0 0 0-2.105-.516h-.008a4.602 4.602 0 0 0-3.965 2.278l-.012.022a4.429 4.429 0 0 0-.582 1.847l-.001.017h-9.6L6.305 1.65A2.664 2.664 0 0 0 3.229.071l.018-.004L.001.805l.201.886L3.448.953a1.76 1.76 0 0 1 2.014 1.035L5.466 2l.932 2.24H.302l10.193 10.193v7.463c-2.367.168-4 .952-4 1.925v.181h9.824v-.181c0-.972-1.636-1.76-4-1.925v-7.463l6.283-6.283c.197.167.417.322.649.458l.022.012A4.575 4.575 0 0 0 23.841.692L23.819.68zm.999 3.507-2.494.007 1.241-2.16a3.305 3.305 0 0 1 1.251 2.135zm-2.038-2.609-1.241 2.166-1.254-2.153a3.285 3.285 0 0 1 1.264-.248c.443 0 .866.086 1.253.243zm-4.111 1.429c.218-.379.496-.698.825-.955l.007-.005 1.254 2.153-2.488.007c.056-.449.198-.855.41-1.216l-.008.015zM3.359 5.506H6.92l.49 1.187H4.547zm14.894 1.188h-.813V6.7H8.387l-.49-1.187h11.534zm2.045 1.026 1.241-2.166 1.254 2.153c-.373.158-.807.25-1.262.25-.444 0-.868-.087-1.255-.246l.022.008zm4.111-1.422a3.297 3.297 0 0 1-.824.955l-.007.005-1.254-2.153 2.488-.006a3.35 3.35 0 0 1-.411 1.214l.009-.016z"/>
</symbol>
<symbol id="facebook" viewBox="0 0 28 28">
  <path d="M17.0804 4.06011C17.2904 4.06011 17.5004 4.06011 17.9204 4.06011V7.21011C17.7104 7.21011 17.2904 7.21011 16.8704 7.21011C16.4504 7.21011 16.0304 7.21011 15.8204 7.42011C15.6104 7.63011 15.6104 7.84011 15.6104 8.33011C15.6104 8.75011 15.6104 9.03011 15.6104 9.45011H17.9204V12.1101H15.6104V23.6601H12.0404V12.0401H10.1504V9.38011H12.0404V8.47011C12.0404 6.93011 12.2504 5.81011 12.6704 5.32011C13.3004 4.41011 14.5604 3.99011 16.4504 3.99011C16.6604 4.06011 16.8704 4.06011 17.0804 4.06011Z" />
</symbol>
<symbol id="instagram" viewBox="0 0 28 28">
  <g opacity="0.8">
<path d="M25.1277 9.41152C25.114 8.47146 24.9398 7.53885 24.6065 6.65964C24.0231 5.15827 22.8352 3.97109 21.3313 3.38991C20.4618 3.06332 19.5426 2.88822 18.6122 2.86835C17.4155 2.81495 17.0361 2.80005 13.9986 2.80005C10.961 2.80005 10.5716 2.80005 9.38372 2.86835C8.45454 2.88822 7.5353 3.06332 6.66582 3.38991C5.16196 3.97109 3.97279 5.15827 3.39065 6.65964C3.06351 7.52767 2.88688 8.44538 2.86946 9.37302C2.81598 10.5689 2.7998 10.9477 2.7998 13.9802C2.7998 17.0127 2.7998 17.4002 2.86946 18.5873C2.88812 19.5162 3.06351 20.4327 3.39065 21.3032C3.97404 22.8033 5.16195 23.9905 6.66706 24.5717C7.53281 24.9095 8.45205 25.1007 9.38497 25.1305C10.5828 25.1839 10.9622 25.2001 13.9998 25.2001C17.0374 25.2001 17.4267 25.2001 18.6146 25.1305C19.5438 25.1119 20.4631 24.9368 21.3338 24.6102C22.8377 24.0278 24.0256 22.8406 24.609 21.3405C24.9361 20.4712 25.1115 19.5547 25.1301 18.6246C25.1836 17.43 25.1998 17.0512 25.1998 14.0174C25.1973 10.9849 25.1973 10.5999 25.1277 9.41152ZM13.9911 19.7149C10.8142 19.7149 8.24059 17.1456 8.24059 13.974C8.24059 10.8024 10.8142 8.23302 13.9911 8.23302C17.1655 8.23302 19.7416 10.8024 19.7416 13.974C19.7416 17.1456 17.1655 19.7149 13.9911 19.7149ZM19.9705 9.35936C19.2279 9.35936 18.6296 8.7608 18.6296 8.02067C18.6296 7.28055 19.2279 6.68199 19.9705 6.68199C20.7106 6.68199 21.3102 7.28055 21.3102 8.02067C21.3102 8.7608 20.7106 9.35936 19.9705 9.35936Z" />
<path d="M13.9928 17.4789C15.9277 17.4789 17.4963 15.9104 17.4963 13.9754C17.4963 12.0405 15.9277 10.4719 13.9928 10.4719C12.0578 10.4719 10.4893 12.0405 10.4893 13.9754C10.4893 15.9104 12.0578 17.4789 13.9928 17.4789Z" />
</g>
</symbol>
<symbol id="youtube" viewBox="0 0 28 28">
  <g opacity="0.8">
<path fillRule="evenodd" clipRule="evenodd" d="M21.2103 5.24986C20.0203 5.17986 17.5704 5.10986 13.8604 5.10986H13.3703C9.80034 5.10986 7.42038 5.17986 6.23038 5.31986C4.62038 5.45986 3.50034 5.87986 2.87034 6.43986C2.31034 6.92986 1.89036 7.83986 1.75036 9.02986C1.68036 9.79986 1.61035 11.4099 1.61035 13.8599V14.2099C1.61035 16.5199 1.68034 18.1299 1.82034 18.8999C2.03034 20.0199 2.38038 20.8599 3.08038 21.3499C3.78038 21.9099 4.97036 22.2599 6.65036 22.3999C7.84036 22.4699 10.2904 22.5399 14.0004 22.5399H14.4904C18.0604 22.5399 20.4404 22.4699 21.6304 22.3299C23.2404 22.1899 24.3604 21.7699 24.9904 21.2099C25.5504 20.7199 25.9703 19.8099 26.1103 18.6199C26.1803 17.8499 26.2504 16.2399 26.2504 13.7899V13.4399C26.2504 11.1299 26.1804 9.51986 26.0404 8.74986C25.8304 7.62986 25.4804 6.78986 24.7804 6.29986C24.0804 5.73986 22.8903 5.38986 21.2103 5.24986ZM18.4804 13.8599L10.7804 18.4799V9.23986L18.4804 13.8599Z"/>
</g>
</symbol>
</defs>
</svg>
