<?xml version="1.0" encoding="utf-8" ?>
<svg
  version="1.1"
  xmlns="http://www.w3.org/2000/svg"
  xmlns:xlink="http://www.w3.org/1999/xlink"
  x="0px"
  y="0px"
  viewBox="0 0 256 256"
  enable-background="new 0 0 256 256"
  xml:space="preserve"
>
<g><g><g><path
          id="glass"
          fill="rgba(101, 153, 92, 0.75)"
          stroke="#f3f3f3"
          strokeWidth="1"
          d="m 220.7,68.4 c 1.8,-1.9 2.3,-4.6 1.3,-7 -1,-2.4 -3.3,-3.9 -5.9,-3.9 h -48.8 l 7.4,-15.9 c 7.1,2.2 14.7,-0.6 17.7,-7.1 3,-6.4 0.3,-14.1 -5.9,-18.1 L 188,13 c 0.5,-1.1 0,-2.3 -1,-2.8 -1.1,-0.5 -2.3,0 -2.8,1 l -1.6,3.4 c -7.1,-2.2 -14.7,0.6 -17.7,7.1 -3,6.4 -0.3,14.1 5.9,18.1 l -8.3,17.7 H 39.9 c -2.6,0 -4.9,1.5 -5.9,3.9 -1,2.4 -0.5,5.1 1.3,7 l 86.8,90.7 v 75.6 H 98 c -3.1,0 -5.6,2.5 -5.6,5.6 0,3.1 2.5,5.6 5.6,5.6 h 60 c 3.1,0 5.6,-2.5 5.6,-5.6 0,-3.1 -2.5,-5.6 -5.6,-5.6 h -24.1 v -75.6 z m -64.2,2 -8.3,17.8 0.18208,-0.305854 L 128,136.9 152.88435,89.117563 152.9,88.2 161.2,70.4 H 201 L 128,146.7 55,70.4 h 101.5 z"
        /><path
          id="drink"
          fill="rgba(11, 153, 242, 0.45)"
          stroke="transparent"
          d="m 55.359619,70.346477 c 145.280771,0 145.280771,-0.611709 145.280771,-0.611709 l -72.79331,77.686982 z"
        /></g><g /><g /><g /><g /><g /><g /><g /><g /><g /><g /><g /><g /><g
      /><g /><g /></g></g>
</svg>
